<svg width="22" height="20" viewBox="0 0 22 20" fill="none" xmlns="http://www.w3.org/2000/svg">
<path d="M19.2611 3.18194C18.7892 2.70977 18.2289 2.3352 17.6122 2.07965C16.9956 1.82409 16.3346 1.69256 15.6671 1.69256C14.9995 1.69256 14.3385 1.82409 13.7219 2.07965C13.1052 2.3352 12.5449 2.70977 12.0731 3.18194L11.0941 4.16094L10.1151 3.18194C9.64501 2.70129 9.08429 2.31866 8.46536 2.0562C7.84643 1.79374 7.18158 1.65666 6.50931 1.65291C5.83704 1.64916 5.1707 1.77881 4.54888 2.03434C3.92705 2.28988 3.3621 2.66623 2.88673 3.14161C2.41135 3.61698 2.035 4.18194 1.77946 4.80376C1.52392 5.42558 1.39428 6.09192 1.39803 6.76419C1.40178 7.43646 1.53885 8.10131 1.80131 8.72025C2.06377 9.33918 2.44641 9.8999 2.92706 10.3699L3.90606 11.3489L11.0941 18.5369L18.2821 11.3489L19.2611 10.3699C19.7332 9.89808 20.1078 9.33781 20.3633 8.72113C20.6189 8.10446 20.7504 7.44347 20.7504 6.77594C20.7504 6.10841 20.6189 5.44742 20.3633 4.83075C20.1078 4.21407 19.7332 3.6538 19.2611 3.18194V3.18194Z" stroke="#303030" stroke-width="1.5" stroke-linecap="round" stroke-linejoin="round"/>
</svg>
