<svg width="22" height="22" viewBox="0 0 22 22" fill="none" xmlns="http://www.w3.org/2000/svg">
<path d="M20.435 10.4764C20.4397 11.8622 20.1164 13.2295 19.4915 14.4664C18.7518 15.9461 17.6148 17.1907 16.2078 18.0607C14.8008 18.9307 13.1793 19.3918 11.525 19.3924C10.1418 19.3959 8.77722 19.0726 7.54253 18.4489L1.56653 20.4349L3.55853 14.4664C2.93421 13.2294 2.61142 11.8621 2.61653 10.4764C2.61698 8.82231 3.07788 7.20097 3.94763 5.79396C4.81737 4.38696 6.06161 3.24984 7.54103 2.50994C8.77617 1.88602 10.1412 1.56274 11.525 1.56644H12.0485C14.2336 1.68684 16.2975 2.60906 17.845 4.1565C19.3924 5.70395 20.3146 7.76784 20.435 9.95294V10.4764Z" stroke="#303030" stroke-width="1.5" stroke-linecap="round" stroke-linejoin="round"/>
</svg>
